{"title":"North Face (2009) Dvdr Nl subs Nlt Release By Zero Yuy","uid":4894211,"size":716998965,"categoryP":"video","categoryS":"movies","magnet":"?xt=urn:btih:40eb7d60268bc3f30c1a68bf077321f289d0fdc7&amp;dn=North+Face+%282009%29+Dvdr+Nl+subs+Nlt+Release+By+Zero+Yuy&amp;tr=udp%3A%2F%2Ftracker.openbittorrent.com%3A80&amp;tr=udp%3A%2F%2Fopen.demonii.com%3A1337&amp;tr=udp%3A%2F%2Ftracker.coppersurfer.tk%3A6969&amp;tr=udp%3A%2F%2Fexodus.desync.com%3A6969","seeders":0,"leechers":1,"uploader":"zeroyuy","files":-1,"time":1242228500,"description":" &lt;a href=&quot;http://www.imdb.com/title/tt0844457/&quot; rel=&quot;nofollow&quot; target=&quot;_NEW&quot;&gt;http://www.imdb.com/title/tt0844457/&lt;/a&gt;\n &lt;a href=&quot;\nhttp://www.moviemeter.nl/film/46150&quot; rel=&quot;nofollow&quot; target=&quot;_NEW&quot;&gt;\nhttp://www.moviemeter.nl/film/46150&lt;/a&gt;\n\nDuitsland\nDrama\n121 minuten\n\ngeregisseerd door Philipp StÃƒÂ¶lzl\nmet Benno FÃƒÂ¼rmann, Florian Lukas en Johanna Wokalek\n\nDuitsland, zomer 1936. Toni en Andi zijn jeugdvrienden die een passie voor bergbeklimmen delen. Ze zijn geobsedeerd door het trotseren van de beruchte Noordwand (in de volksmond 'Moordwand') van de berg Eiger. Ze gaan over tot beklimming onder grote media-aandacht, onder meer van Toni's jeugdliefde Luise die nu journaliste voor de Nazi-partij is. Onderweg komen de heren ook nog twee Oostenrijkers tegen met wie ze optrekken maar dan draait het weer volledig.\n\nVanaf 21 mei in de bioscoop.\n\nVideo info:\n\nGeneral\nFormat                           : AVI\nFormat/Info                      : Audio Video Interleave\nFile size                        : 684 MiB\nDuration                         : 2h 1mn\nOverall bit rate                 : 788 Kbps\nWriting application              : VirtualDubMod 1.5.10.2 (build 2542/release)\nWriting library                  : VirtualDubMod build 2542/release\n\nVideo\nFormat                           : MPEG-4 Visual\nFormat profile                   : Streaming Video@L1\nFormat settings, BVOP            : Yes\nFormat settings, QPel            : No\nFormat settings, GMC             : No warppoints\nFormat settings, Matrix          : Default\nMuxing mode                      : Packed bitstream\nCodec ID                         : XVID\nCodec ID/Hint                    : XviD\nDuration                         : 2h 1mn\nBit rate                         : 650 Kbps\nWidth                            : 760 pixels\nHeight                           : 428 pixels\nDisplay aspect ratio             : 16/9\nFrame rate                       : 25.000 fps\nResolution                       : 24 bits\nColorimetry                      : 4:2:0\nScan type                        : Progressive\nBits/(Pixel*Frame)               : 0.080\nStream size                      : 564 MiB (83%)\nWriting library                  : XviD 1.2.1 (UTC 2008-12-04)\n\nAudio\nFormat                           : MPEG Audio\nFormat version                   : Version 1\nFormat profile                   : Layer 3\nCodec ID                         : 55\nCodec ID/Hint                    : MP3\nDuration                         : 2h 1mn\nBit rate mode                    : Constant\nBit rate                         : 128 Kbps\nMinimum bit rate                 : 128 Kbps\nChannel(s)                       : 2 channels\nSampling rate                    : 48.0 KHz\nResolution                       : 16 bits\nStream size                      : 111 MiB (16%)\nAlignment                        : Aligned on interleaves\nInterleave, duration             : 40 ms (1.00 video frame)\nInterleave, preload duration     : 504 ms\nWriting library                  : LAME3.97 \nEncoding settings                : CBR\nLanguage                         : German\nSubtitle                         : Dutch\n\nBrought to you by Nlt Release @\n &lt;a href=&quot;\nhttp://nlt.ons-forum.nl&quot; rel=&quot;nofollow&quot; target=&quot;_NEW&quot;&gt;\nhttp://nlt.ons-forum.nl&lt;/a&gt;","torrent":{"xt":"urn:btih:40eb7d60268bc3f30c1a68bf077321f289d0fdc7","amp;dn":"North+Face+%282009%29+Dvdr+Nl+subs+Nlt+Release+By+Zero+Yuy","amp;tr":["udp%3A%2F%2Ftracker.openbittorrent.com%3A80","udp%3A%2F%2Fopen.demonii.com%3A1337","udp%3A%2F%2Ftracker.coppersurfer.tk%3A6969","udp%3A%2F%2Fexodus.desync.com%3A6969"],"infoHash":"40eb7d60268bc3f30c1a68bf077321f289d0fdc7","infoHashBuffer":{"type":"Buffer","data":[64,235,125,96,38,139,195,243,12,26,104,191,7,115,33,242,137,208,253,199]},"announce":[],"urlList":[]}}